<svg width="304" height="304" xmlns="http://www.w3.org/2000/svg" xmlns:xlink="http://www.w3.org/1999/xlink" overflow="hidden"><defs><clipPath id="clip0"><path d="M295 93 599 93 599 397 295 397Z" fill-rule="evenodd" clip-rule="evenodd"/></clipPath><clipPath id="clip1"><path d="M310 116 584 116 584 390 310 390Z" fill-rule="evenodd" clip-rule="evenodd"/></clipPath><clipPath id="clip2"><path d="M310 116 584 116 584 390 310 390Z" fill-rule="evenodd" clip-rule="evenodd"/></clipPath><clipPath id="clip3"><path d="M310 116 584 116 584 390 310 390Z" fill-rule="evenodd" clip-rule="evenodd"/></clipPath></defs><g clip-path="url(#clip0)" transform="translate(-295 -93)"><path d="M588.71 395.338 527.704 372.624C457.22 417.196 363.948 396.189 319.376 325.705 274.804 255.22 295.811 161.948 366.295 117.377 436.78 72.8047 530.052 93.8111 574.623 164.296 607.522 216.32 605.549 283.107 569.636 333.098Z" fill="#D9DCF0" fill-rule="evenodd"/><g clip-path="url(#clip1)"><g clip-path="url(#clip2)"><g clip-path="url(#clip3)"><path d="M447.799 344.333C460.314 334.453 472.255 323.866 483.562 312.624 499.953 297.007 514.447 279.514 526.745 260.506 538.162 242.126 549.065 218.265 541.559 196.459 535.479 178.421 518.611 163.094 499.231 161.239 474.742 158.813 457.018 179.534 447 199.37 437.838 181.218 422.682 162.494 400.791 161.124 381.354 159.926 363.259 173.597 354.896 190.579 344.421 211.9 352.955 235.875 363.972 255.026 375.389 275.006 390.573 292.559 406.614 308.799 419.258 321.736 432.75 333.817 447 344.961ZM401.333 247.292 409.896 221.604 414.976 206.334C416.289 202.367 418.316 197.058 423.796 199.342 427.106 200.74 427.306 204.165 427.877 207.162L430.246 219.806 437.096 256.339 441.634 280.6 458.188 236.817 461.842 227.17C462.898 224.316 463.982 221.461 467.55 221.148 472.088 220.691 473.43 224.573 474.429 227.997L477.939 240.042 484.903 263.989 491.782 256.425C493.982 253.546 496.458 250.888 499.174 248.49 502.028 246.493 507.309 247.406 510.591 247.406L521.208 247.406C519.096 251.202 516.756 255.026 514.216 258.823L504.94 258.823C498.86 265.53 493.038 272.665 486.587 279.03 484.564 281.448 480.964 281.768 478.546 279.744 478.071 279.347 477.663 278.874 477.34 278.345 476.72 277.117 476.268 275.812 475.998 274.463L471.232 258.166 467.35 244.809C460.072 264.017 453.079 283.254 445.573 302.377 445.153 303.935 444.242 305.316 442.976 306.316 440.377 308.101 436.823 307.441 435.038 304.843 434.582 304.179 434.272 303.426 434.128 302.634 433.471 300.008 433.129 297.268 432.615 294.642L425.394 256.111 420 227.313 411.951 251.487C410.724 255.084 409.753 258.594 405.129 258.823 400.934 259.022 396.71 258.823 392.543 258.823L379.699 258.823C377.187 255.026 374.818 251.202 372.706 247.406Z" fill="#3F51B5"/></g></g></g></g></svg>